<svg xmlns="http://www.w3.org/2000/svg" xmlns:xlink="http://www.w3.org/1999/xlink" width="375" zoomAndPan="magnify" viewBox="0 0 375 374.999991" height="374.999991" preserveAspectRatio="xMidYMid meet" version="1.0"><path fill="rgb(59.21936%, 90.19928%, 99.21875%)" d="M 0 332.976562 L 187.5 8.226562 L 375 332.976562 Z M 0 332.976562 " fill-opacity="1" fill-rule="nonzero"/><path fill="rgb(0%, 55.688477%, 79.998779%)" d="M 20.355469 321.214844 L 187.5 31.71875 L 354.644531 321.214844 Z M 20.355469 321.214844 " fill-opacity="1" fill-rule="nonzero"/><path fill="rgb(0%, 55.688477%, 79.998779%)" d="M 295.125 209.40625 L 120.175781 148.625 L 193.953125 318.441406 L 219.066406 260.796875 L 287.855469 324.605469 L 308.246094 302.496094 L 239.527344 238.855469 Z M 295.125 209.40625 " fill-opacity="1" fill-rule="nonzero"/><path fill="rgb(59.21936%, 90.19928%, 99.21875%)" d="M 290.304688 330.613281 C 289.617188 330.890625 288.863281 331 288.105469 331.105469 C 286.351562 331.222656 284.660156 330.507812 283.417969 329.414062 L 221.375 271.859375 L 199.988281 320.984375 C 198.972656 323.402344 196.609375 324.964844 193.960938 324.84375 C 191.378906 324.894531 189.097656 323.222656 187.949219 320.886719 L 114.242188 151.242188 C 113.261719 148.839844 113.726562 146.050781 115.367188 144.183594 C 117.175781 142.246094 119.957031 141.710938 122.304688 142.558594 L 297.253906 203.335938 C 299.597656 204.183594 301.332031 206.476562 301.554688 208.988281 C 301.777344 211.496094 300.417969 214.050781 298.085938 215.203125 L 250.472656 240.199219 L 312.515625 297.753906 C 315.148438 300.285156 315.34375 304.207031 312.816406 306.835938 L 292.425781 328.945312 C 291.949219 329.742188 291.160156 330.261719 290.304688 330.613281 Z M 216.621094 254.789062 C 216.960938 254.648438 217.304688 254.511719 217.71875 254.542969 C 219.746094 254.117188 221.949219 254.621094 223.40625 256.226562 L 287.386719 315.59375 L 299.066406 303.03125 L 235.015625 243.496094 C 233.460938 242.128906 232.792969 240 232.953125 237.933594 C 233.109375 235.867188 234.578125 234.070312 236.324219 232.957031 L 278.761719 210.46875 L 131.972656 159.425781 L 193.878906 302.066406 L 212.960938 258.082031 C 213.8125 256.734375 215.074219 255.417969 216.621094 254.789062 Z M 216.621094 254.789062 " fill-opacity="1" fill-rule="nonzero"/><path fill="rgb(59.21936%, 90.19928%, 99.21875%)" d="M 159.683594 221.84375 L 145.714844 215.320312 L 164.339844 175.40625 L 185.859375 192.726562 L 196.394531 175.363281 L 209.558594 183.394531 L 189.867188 215.785156 L 169.972656 199.777344 Z M 159.683594 221.84375 " fill-opacity="1" fill-rule="nonzero"/></svg>